# Blender 5.0.1
# www.blender.org
mtllib usa_garaj.mtl
o Garage_Cube.002
v 1.497180 -0.281309 0.004159
v -1.442741 -0.281309 0.004159
v 1.497180 1.736732 0.004159
v -1.442741 1.736732 0.004159
v -0.004538 -0.081823 0.006154
v -0.032682 -0.087109 0.006154
v -0.053286 -0.101554 0.006154
v -0.060828 -0.121285 0.006154
v -0.053286 -0.141017 0.006154
v -0.032682 -0.155461 0.006154
v -0.004538 -0.160748 0.006154
v 0.023608 -0.155461 0.006154
v 0.044212 -0.141017 0.006154
v 0.051753 -0.121285 0.006154
v 0.044212 -0.101554 0.006154
v 0.023608 -0.087109 0.006154
v -0.004538 -0.090458 -0.007541
v -0.026524 -0.094588 -0.007541
v -0.042619 -0.105871 -0.007541
v -0.048510 -0.121285 -0.007541
v -0.042619 -0.136699 -0.007541
v -0.026524 -0.147983 -0.007541
v -0.004538 -0.152113 -0.007541
v 0.017450 -0.147983 -0.007541
v 0.033545 -0.136699 -0.007541
v 0.039436 -0.121285 -0.007541
v 0.033545 -0.105872 -0.007541
v 0.017450 -0.094588 -0.007541
vn -0.0000 -0.0000 -1.0000
vn -0.6247 0.4593 -0.6314
vn -0.3359 0.7549 -0.5633
vn -0.1885 0.4811 -0.8561
vn -0.3783 0.3200 -0.8686
vn 0.7435 -0.0000 -0.6687
vn 0.6247 -0.4593 -0.6314
vn 0.3783 -0.3200 -0.8686
vn 0.4796 -0.0000 -0.8775
vn -0.0000 -0.8459 -0.5333
vn -0.3359 -0.7549 -0.5633
vn -0.1885 -0.4812 -0.8561
vn -0.0000 -0.5244 -0.8515
vn -0.7435 -0.0000 -0.6687
vn -0.4795 -0.0000 -0.8775
vn 0.6247 0.4593 -0.6314
vn 0.3783 0.3200 -0.8686
vn 0.3359 -0.7549 -0.5633
vn 0.1885 -0.4812 -0.8561
vn -0.6247 -0.4593 -0.6314
vn -0.3783 -0.3200 -0.8686
vn 0.3359 0.7549 -0.5633
vn 0.1885 0.4811 -0.8561
vn -0.0000 0.8459 -0.5334
vn -0.0000 0.5244 -0.8515
vt 0.458883 0.980951
vt 0.458883 0.819047
vt 0.570013 0.819047
vt 0.570013 0.980951
vt 0.680015 0.717193
vt 0.679978 0.718328
vt 0.679244 0.718667
vt 0.679272 0.717781
vt 0.680015 0.725803
vt 0.680015 0.726890
vt 0.679260 0.726652
vt 0.679260 0.725803
vt 0.673338 0.719878
vt 0.673349 0.718328
vt 0.674119 0.718667
vt 0.674110 0.719878
vt 0.675072 0.725803
vt 0.675072 0.726890
vt 0.674318 0.726652
vt 0.674318 0.725803
vt 0.680015 0.724717
vt 0.679260 0.724954
vt 0.673349 0.721428
vt 0.674119 0.721089
vt 0.675072 0.724717
vt 0.674318 0.724954
vt 0.679978 0.721428
vt 0.680015 0.722562
vt 0.679272 0.721975
vt 0.679244 0.721089
vt 0.679965 0.719878
vt 0.679233 0.719878
vt 0.673381 0.722562
vt 0.674144 0.721975
vt 0.673381 0.717193
vt 0.674144 0.717781
vt 0.662732 0.718655
vt 0.662732 0.719887
vt 0.662285 0.721035
vt 0.661511 0.721791
vt 0.660617 0.721953
vt 0.659842 0.721478
vt 0.659395 0.720492
vt 0.659395 0.719260
vt 0.659842 0.718112
vt 0.660617 0.717355
vt 0.661511 0.717193
vt 0.662285 0.717669
s 1
usemtl Material.001
f 4/1/1 3/2/1 1/3/1 2/4/1
f 7/5/2 6/6/3 18/7/4 19/8/5
f 14/9/6 13/10/7 25/11/8 26/12/9
f 11/13/10 10/14/11 22/15/12 23/16/13
f 8/17/14 7/18/2 19/19/5 20/20/15
f 15/21/16 14/9/6 26/12/9 27/22/17
f 12/23/18 11/13/10 23/16/13 24/24/19
f 9/25/20 8/17/14 20/20/15 21/26/21
f 16/27/22 15/28/16 27/29/17 28/30/23
f 6/6/3 5/31/24 17/32/25 18/7/4
f 13/33/7 12/23/18 24/24/19 25/34/8
f 10/14/11 9/35/20 21/36/21 22/15/12
f 5/31/24 16/27/22 28/30/23 17/32/25
f 18/37/4 17/38/25 28/39/23 27/40/17 26/41/9 25/42/8 24/43/19 23/44/13 22/45/12 21/46/21 20/47/15 19/48/5
